<svg width="96" height="96" viewBox="0 0 96 96" fill="none" xmlns="http://www.w3.org/2000/svg">
<g clip-path="url(#clip0_507_716)">
<path d="M48 63C47.0212 63 46.05 62.955 45.0919 62.8706C40.1481 62.4288 35.3675 60.8782 31.1056 58.3342C26.8437 55.7902 23.2101 52.3181 20.475 48.1763L3.75 78H25.3125L36.1875 96L51.6619 62.7956C50.4459 62.931 49.2234 62.9992 48 63V63Z" fill="#21272A"/>
<path d="M75.5625 48.1388C71.6016 54.1375 65.7992 58.6871 59.0288 61.1025L51.3188 77.9063L59.8125 96L70.6875 78H92.25L75.5625 48.1388Z" fill="#21272A"/>
<path d="M48.0038 39C52.9743 39 57.0037 34.9706 57.0037 30C57.0037 25.0294 52.9743 21 48.0038 21C43.0332 21 39.0038 25.0294 39.0038 30C39.0038 34.9706 43.0332 39 48.0038 39Z" fill="#21272A"/>
<path d="M48 3C33.1125 3 21 15.1125 21 30C21 44.8875 33.1125 57 48 57C62.8875 57 75 44.8875 75 30C75 15.1125 62.8875 3 48 3ZM48 45C45.0333 45 42.1332 44.1203 39.6664 42.472C37.1997 40.8238 35.2771 38.4811 34.1418 35.7403C33.0065 32.9994 32.7094 29.9834 33.2882 27.0736C33.867 24.1639 35.2956 21.4912 37.3934 19.3934C39.4912 17.2956 42.1639 15.867 45.0736 15.2882C47.9834 14.7094 50.9994 15.0065 53.7403 16.1418C56.4811 17.2771 58.8238 19.1997 60.472 21.6664C62.1203 24.1332 63 27.0333 63 30C62.9955 33.9769 61.4137 37.7896 58.6017 40.6017C55.7896 43.4137 51.9769 44.9955 48 45V45Z" fill="#21272A"/>
</g>
<defs>
<clipPath id="clip0_507_716">
<rect width="96" height="96" fill="white"/>
</clipPath>
</defs>
</svg>
