<svg width="20" height="21" viewBox="0 0 20 21" fill="none" xmlns="http://www.w3.org/2000/svg">
<path d="M18 0C19.1045 0 20 0.92122 20 2.05762V18.5195C19.9998 19.6558 19.1045 20.5771 18 20.5771H13V12.8301H15.5625L15.9736 9.92578H13V8.68359C13.0001 7.5703 13.3054 7.02056 14.3389 7.02051H16V4.24219C15.708 4.20249 15.091 4.11523 13.9248 4.11523C11.4896 4.11529 10 5.412 10 8.36523V9.92578H7V12.8301H10V20.5771H2C0.895531 20.5771 0.000163543 19.6558 0 18.5195V2.05762C3.88229e-05 0.92122 0.895454 0 2 0H18Z" fill="black"/>
</svg>
