<svg width="96" height="96" viewBox="0 0 96 96" fill="none" xmlns="http://www.w3.org/2000/svg">
<path d="M48 9C26.4956 9 9 26.4956 9 48C9 69.5044 26.4956 87 48 87C69.5044 87 87 69.5044 87 48C87 26.4956 69.5044 9 48 9ZM62.0044 56.4038C60.4106 58.3463 54.5625 63.6187 48 68.3119C41.4375 63.6244 35.5894 58.3463 33.9956 56.4038C30.2456 51.8344 28.4494 47.1413 28.5019 42.06C28.56 36.2363 33.2306 31.4981 38.9137 31.4981C43.0387 31.4981 45.9075 33.825 47.5744 35.7656L48 36.2812L48.4256 35.7656C50.0625 33.8044 52.9537 31.5 57.0862 31.5C62.7694 31.5 67.44 36.2381 67.4981 42.0619C67.5506 47.1413 65.7525 51.8344 62.0044 56.4038Z" fill="#21272A"/>
</svg>
