<svg width="20" height="21" viewBox="0 0 20 21" fill="none" xmlns="http://www.w3.org/2000/svg">
<path fill-rule="evenodd" clip-rule="evenodd" d="M20 6.17285C19.9999 2.76366 17.3136 0 14 0H6C2.68636 0 0.000116469 2.76366 0 6.17285V14.4043C0.000241198 17.8134 2.68644 20.5771 6 20.5771H14C17.3136 20.5771 19.9998 17.8134 20 14.4043V6.17285ZM5 10.2881C5.0002 7.45121 7.24262 5.14453 10 5.14453C12.7574 5.14453 14.9998 7.45121 15 10.2881C15 13.1251 12.7575 15.4326 10 15.4326C7.2425 15.4326 5 13.1251 5 10.2881ZM15 4.11523C15.0001 3.60086 15.5 3.08691 16 3.08691C16.5 3.08691 16.9999 3.60086 17 4.11523C17 4.62966 16.5 5.14453 16 5.14453C15.5 5.14453 15 4.62966 15 4.11523ZM7 10.2885C7 8.58381 8.34315 7.20192 10 7.20192C11.6569 7.20192 13 8.58381 13 10.2885C13 11.9931 11.6569 13.375 10 13.375C8.34315 13.375 7 11.9931 7 10.2885Z" fill="black"/>
</svg>
